<svg xmlns="http://www.w3.org/2000/svg" width="23.479" height="29.611" viewBox="0 0 23.479 29.611">
  <g id="cart" transform="translate(-53.02)">
    <g id="Group_483" data-name="Group 483" transform="translate(53.02)">
      <g id="Group_482" data-name="Group 482">
        <path id="Path_256" data-name="Path 256" d="M76.485,24.419,75.162,7.756A2.083,2.083,0,0,0,73.1,5.841H70.483V5.724a5.724,5.724,0,1,0-11.448,0v.117H56.424a2.082,2.082,0,0,0-2.067,1.912L53.034,24.421a4.822,4.822,0,0,0,4.807,5.19H71.677a4.822,4.822,0,0,0,4.807-5.193ZM60.77,5.724a3.989,3.989,0,0,1,7.979,0v.117H60.77ZM73.942,26.888a3.055,3.055,0,0,1-2.265.989H57.842a3.087,3.087,0,0,1-3.078-3.321L56.086,7.888a.34.34,0,0,1,.338-.313h2.612V9.712a.867.867,0,0,0,1.734,0V7.576h7.979V9.712a.867.867,0,1,0,1.734,0V7.576H73.1a.341.341,0,0,1,.338.315l1.322,16.663A3.055,3.055,0,0,1,73.942,26.888Z" transform="translate(-53.02)" fill="#fff"/>
      </g>
    </g>
  </g>
</svg>
