<svg id="delivery" xmlns="http://www.w3.org/2000/svg" width="19.153" height="16.312" viewBox="0 0 19.153 16.312">
  <path id="Path_12" data-name="Path 12" d="M18.583,92.189a.56.56,0,0,0,.53-.56,2.885,2.885,0,0,0-2.951-2.88h-.547l-.668-3.172a1.821,1.821,0,0,0-.722-3.492H11.64a.561.561,0,0,0-.56.561v.7H9.7a.561.561,0,0,0,0,1.122H11.08v.7a.561.561,0,0,0,.56.561h.249a3.136,3.136,0,0,0-.745,2.031v3.193a.03.03,0,0,1-.03.03H8.851a.03.03,0,0,1-.028-.021l-.61-2.065a1.156,1.156,0,0,0,.855-1.115,2.3,2.3,0,0,0-2.294-2.3H1.723a1.725,1.725,0,0,0-.24,3.434A4.331,4.331,0,0,0,.035,92.151V93.9a.561.561,0,0,0,.56.561h.485a2.845,2.845,0,0,0,5.58,0h6.856a2.846,2.846,0,1,0,5.066-2.27ZM17.9,91.068H16.639a2.813,2.813,0,0,0-.917.041V89.872h.441A1.8,1.8,0,0,1,17.9,91.068Zm-5.7-7.861h2.025a.7.7,0,0,1,0,1.4H12.2Zm-3.35,8.9h2.264a1.152,1.152,0,0,0,1.151-1.152V87.758a2.029,2.029,0,0,1,1.58-1.977l.756,3.588v2.25a2.854,2.854,0,0,0-1.083,1.717H7.945a4,4,0,0,0-4-3.52,3.843,3.843,0,0,0-2.411.822,3.215,3.215,0,0,1,2.835-1.7H7.055l.693,2.344a1.157,1.157,0,0,0,1.1.825ZM1.2,93.336a2.959,2.959,0,0,1,.743-1.553,2.7,2.7,0,0,1,2-.845,2.889,2.889,0,0,1,2.864,2.4H1.2Zm.521-5.525a.6.6,0,0,1,0-1.206h5.05A1.175,1.175,0,0,1,7.946,87.78c0,.023-.042.038-.111.032H1.723Zm2.148,7.813A1.728,1.728,0,0,1,2.24,94.459H5.5A1.728,1.728,0,0,1,3.871,95.625Zm12.436,0A1.727,1.727,0,1,1,18.033,93.9,1.728,1.728,0,0,1,16.308,95.625Z" transform="translate(0 -80.435)" fill="#444"/>
  <ellipse id="Ellipse_4" data-name="Ellipse 4" cx="0.564" cy="0.565" rx="0.564" ry="0.565" transform="translate(15.743 12.898)" fill="#444"/>
  <path id="Path_13" data-name="Path 13" d="M1.188,100.565H6.215a.561.561,0,0,0,0-1.122H1.188a.561.561,0,0,0,0,1.122Z" transform="translate(-0.605 -97.144)" fill="#444"/>
  <path id="Path_14" data-name="Path 14" d="M50.96,39.1h5.07a.561.561,0,0,0,0-1.122H50.96a.561.561,0,0,0,0,1.122Z" transform="translate(-48.515 -37.976)" fill="#444"/>
</svg>
