<svg xmlns="http://www.w3.org/2000/svg" xmlns:xlink="http://www.w3.org/1999/xlink" width="143.845" height="35.001" viewBox="0 0 143.845 35.001">
  <defs>
    <linearGradient id="linear-gradient" x1="0.5" x2="0.5" y2="1" gradientUnits="objectBoundingBox">
      <stop offset="0" stop-color="#f96"/>
      <stop offset="0.527" stop-color="#ff7a64"/>
      <stop offset="1" stop-color="#ff5e62"/>
    </linearGradient>
  </defs>
  <g id="logo-color" transform="translate(-518 53)">
    <g id="logo_sticky" transform="translate(518 -52.55)">
      <path id="Path_2" data-name="Path 2" d="M53.783,14.965c-8.221-13.955-23.886-13.929-32.12,0C24.4,7.7,30.725,2.983,37.723,2.983S51.06,7.706,53.783,14.965ZM37.815,28.08a8.2,8.2,0,0,1-6.5-3.209H35.2a5.63,5.63,0,0,0,5.275,0H44.3a8.156,8.156,0,0,1-6.485,3.209Zm0,6.471H19.94a1.268,1.268,0,0,1-1.276-1.275h0A1.274,1.274,0,0,1,19.94,32h9.325a14.938,14.938,0,0,1-2.591-2.145H13.732a1.269,1.269,0,0,1-1.276-1.275h0a1.276,1.276,0,0,1,1.276-1.273H24.649a14.8,14.8,0,0,1-1.25-2.436H8.234a1.274,1.274,0,1,1,0-2.548H53.02a15.574,15.574,0,0,1-15.2,12.225ZM27.371,19.7H53.664c2.065,0,2.3-1.17,2.025-2.71C54.229,8.7,48.311,2.43,39.63,1.26a1.827,1.827,0,0,0-3.644-.04,21.173,21.173,0,0,0-5.248,1.355c-6.366,2.907-10,7.6-11.561,14.573H1.276a1.277,1.277,0,0,0,0,2.553h26.1Z" fill="url(#linear-gradient)"/>
    </g>
    <path id="Path_265" data-name="Path 265" d="M4.619,0H2.073V-15.705h8.862v2.17H4.619v4.909h5.919v2.181H4.619ZM24.052-5.962a6.485,6.485,0,0,1-1.493,4.544A5.35,5.35,0,0,1,18.4.215a5.7,5.7,0,0,1-2.943-.752A4.964,4.964,0,0,1,13.492-2.7,7.354,7.354,0,0,1,12.8-5.962a6.441,6.441,0,0,1,1.482-4.512A5.375,5.375,0,0,1,18.466-12.1a5.234,5.234,0,0,1,4.082,1.66A6.411,6.411,0,0,1,24.052-5.962Zm-8.647,0q0,4.114,3.04,4.114,3.008,0,3.008-4.114,0-4.071-3.029-4.071a2.583,2.583,0,0,0-2.3,1.053A5.357,5.357,0,0,0,15.4-5.962Zm22.086,0A6.485,6.485,0,0,1,36-1.418,5.35,5.35,0,0,1,31.84.215,5.7,5.7,0,0,1,28.9-.537,4.964,4.964,0,0,1,26.931-2.7a7.354,7.354,0,0,1-.687-3.266,6.441,6.441,0,0,1,1.482-4.512A5.375,5.375,0,0,1,31.9-12.1a5.234,5.234,0,0,1,4.082,1.66A6.411,6.411,0,0,1,37.49-5.962Zm-8.647,0q0,4.114,3.04,4.114,3.008,0,3.008-4.114,0-4.071-3.029-4.071a2.583,2.583,0,0,0-2.3,1.053A5.357,5.357,0,0,0,28.843-5.962ZM43.205,0H40.659V-15.705h8.862v2.17H43.205v4.909h5.919v2.181H43.205ZM59.533,0l-.5-1.654h-.086A4.867,4.867,0,0,1,57.213-.177a5.47,5.47,0,0,1-2.234.392A3.781,3.781,0,0,1,52.245-.73a3.537,3.537,0,0,1-.983-2.675,3.141,3.141,0,0,1,1.364-2.771A7.866,7.866,0,0,1,56.783-7.2l2.052-.064V-7.9A2.4,2.4,0,0,0,58.3-9.6a2.169,2.169,0,0,0-1.649-.564,5.7,5.7,0,0,0-1.751.269,13.214,13.214,0,0,0-1.611.634l-.816-1.8a8.786,8.786,0,0,1,2.116-.768,9.739,9.739,0,0,1,2.17-.263,5.139,5.139,0,0,1,3.421.988A3.869,3.869,0,0,1,61.338-8V0Zm-3.76-1.719a3.127,3.127,0,0,0,2.208-.768,2.784,2.784,0,0,0,.833-2.154V-5.672l-1.525.064a5.219,5.219,0,0,0-2.594.6,1.811,1.811,0,0,0-.811,1.627,1.588,1.588,0,0,0,.473,1.23A2.031,2.031,0,0,0,55.773-1.719ZM72.843-3.384A3.109,3.109,0,0,1,71.575-.714a6.07,6.07,0,0,1-3.631.929A8.577,8.577,0,0,1,64.131-.5V-2.686a9.362,9.362,0,0,0,3.9.967q2.331,0,2.331-1.407a1.115,1.115,0,0,0-.258-.752,3.051,3.051,0,0,0-.849-.623,14.6,14.6,0,0,0-1.644-.73,7.6,7.6,0,0,1-2.777-1.59,2.942,2.942,0,0,1-.725-2.062,2.709,2.709,0,0,1,1.23-2.369,5.837,5.837,0,0,1,3.346-.843,9.477,9.477,0,0,1,3.964.849l-.816,1.9a8.816,8.816,0,0,0-3.233-.795q-2,0-2,1.139a1.146,1.146,0,0,0,.521.945,11.457,11.457,0,0,0,2.272,1.063,10.386,10.386,0,0,1,2.138,1.042,3.114,3.114,0,0,1,.988,1.09A3.156,3.156,0,0,1,72.843-3.384ZM80-1.826a6.139,6.139,0,0,0,1.848-.29v1.9a5.1,5.1,0,0,1-1.08.306A7.438,7.438,0,0,1,79.4.215q-3.588,0-3.588-3.781v-6.4H74.186v-1.117l1.74-.924.859-2.514h1.558v2.643h3.384v1.912H78.343v6.359A1.784,1.784,0,0,0,78.8-2.261,1.664,1.664,0,0,0,80-1.826Z" transform="translate(580 -26)" fill="url(#linear-gradient)"/>
  </g>
</svg>
