<svg xmlns="http://www.w3.org/2000/svg" width="19.353" height="14.429" viewBox="0 0 19.353 14.429">
  <g id="money" transform="translate(0.1 0.102)">
    <path id="Path_258" data-name="Path 258" d="M225.2,239.355a.6.6,0,0,1,.6.6.3.3,0,1,0,.6,0,1.2,1.2,0,0,0-.9-1.159v-.337a.3.3,0,0,0-.6,0v.337a1.2,1.2,0,0,0,.3,2.356.6.6,0,1,1-.6.6.3.3,0,0,0-.6,0,1.2,1.2,0,0,0,.9,1.159v.337a.3.3,0,1,0,.6,0v-.337a1.2,1.2,0,0,0-.3-2.356.6.6,0,0,1,0-1.2Z" transform="translate(-215.62 -231.712)" fill="#444" stroke="#444" stroke-width="0.2"/>
    <path id="Path_259" data-name="Path 259" d="M155.891,206.158a3.891,3.891,0,1,0,3.891,3.891A3.895,3.895,0,0,0,155.891,206.158Zm0,7.183a3.292,3.292,0,1,1,3.292-3.292A3.3,3.3,0,0,1,155.891,213.341Z" transform="translate(-146.314 -200.909)" fill="#444" stroke="#444" stroke-width="0.2"/>
    <path id="Path_260" data-name="Path 260" d="M18.22,69.894l-.191-1.531a.9.9,0,0,0-1.015-.778l-.433.062L16.3,66.522a.9.9,0,0,0-1.107-.648L.852,69.895a.9.9,0,0,0-.853.9v8.38a.9.9,0,0,0,.9.9H18.256a.9.9,0,0,0,.9-.9v-8.38a.9.9,0,0,0-.933-.9ZM17.1,68.178a.3.3,0,0,1,.338.259l.182,1.456H5.1Zm-1.747-1.728a.3.3,0,0,1,.368.216l.266,1.066L5.36,69.252Zm3.2,12.721a.3.3,0,0,1-.3.3H.9a.3.3,0,0,1-.3-.3v-8.38a.3.3,0,0,1,.3-.3H18.256a.3.3,0,0,1,.3.3Z" transform="translate(0 -65.842)" fill="#444" stroke="#444" stroke-width="0.2"/>
    <path id="Path_261" data-name="Path 261" d="M341.088,207.056a.6.6,0,0,1-.6-.6.3.3,0,0,0-.3-.3H336.3a.3.3,0,0,0,0,.6h3.629a1.2,1.2,0,0,0,.86.86v4.864a1.2,1.2,0,0,0-.86.86H336.3a.3.3,0,0,0,0,.6h3.891a.3.3,0,0,0,.3-.3.6.6,0,0,1,.6-.6.3.3,0,0,0,.3-.3v-5.387A.3.3,0,0,0,341.088,207.056Z" transform="translate(-323.431 -200.909)" fill="#444" stroke="#444" stroke-width="0.2"/>
    <path id="Path_262" data-name="Path 262" d="M37.088,213.34H33.458a1.2,1.2,0,0,0-.86-.86v-4.864a1.2,1.2,0,0,0,.86-.86h3.629a.3.3,0,0,0,0-.6H33.2a.3.3,0,0,0-.3.3.6.6,0,0,1-.6.6.3.3,0,0,0-.3.3v5.387a.3.3,0,0,0,.3.3.6.6,0,0,1,.6.6.3.3,0,0,0,.3.3h3.891a.3.3,0,0,0,0-.6Z" transform="translate(-30.803 -200.909)" fill="#444" stroke="#444" stroke-width="0.2"/>
    <path id="Path_263" data-name="Path 263" d="M72,287.056a.9.9,0,1,0,.9-.9A.9.9,0,0,0,72,287.056Zm1.2,0a.3.3,0,1,1-.3-.3A.3.3,0,0,1,73.2,287.056Z" transform="translate(-69.307 -277.916)" fill="#444" stroke="#444" stroke-width="0.2"/>
    <path id="Path_264" data-name="Path 264" d="M393.8,287.056a.9.9,0,1,0-.9.9A.9.9,0,0,0,393.8,287.056Zm-1.2,0a.3.3,0,1,1,.3.3A.3.3,0,0,1,392.6,287.056Z" transform="translate(-377.336 -277.916)" fill="#444" stroke="#444" stroke-width="0.2"/>
  </g>
</svg>
