<svg xmlns="http://www.w3.org/2000/svg" width="29.051" height="29.051" viewBox="0 0 29.051 29.051">
  <path id="user" d="M24.8,4.254A14.526,14.526,0,0,0,4.254,24.8,14.526,14.526,0,0,0,24.8,4.254ZM7.282,25.1a7.355,7.355,0,0,1,14.487,0,12.8,12.8,0,0,1-14.487,0ZM9.907,12.7a4.619,4.619,0,1,1,4.619,4.619A4.624,4.624,0,0,1,9.907,12.7ZM23.243,23.921A9.072,9.072,0,0,0,17.969,18a6.321,6.321,0,1,0-6.888,0A9.07,9.07,0,0,0,5.807,23.92a12.823,12.823,0,1,1,17.436,0Zm0,0" transform="translate(0)" fill="#fff"/>
</svg>
