<svg xmlns="http://www.w3.org/2000/svg" xmlns:xlink="http://www.w3.org/1999/xlink" width="22.023" height="22.019" viewBox="0 0 22.023 22.019">
  <defs>
    <linearGradient id="linear-gradient" x1="0.5" x2="0.5" y2="1" gradientUnits="objectBoundingBox">
      <stop offset="0" stop-color="#f96"/>
      <stop offset="0.527" stop-color="#ff7a64"/>
      <stop offset="1" stop-color="#ff5e62"/>
    </linearGradient>
  </defs>
  <g id="worldwide" transform="translate(0 -0.05)">
    <g id="Group_500" data-name="Group 500" transform="translate(0 0.05)">
      <path id="Path_257" data-name="Path 257" d="M11.016.05A11.009,11.009,0,0,0,.893,6.726l-.137.046.053.16A11.009,11.009,0,1,0,11.016.05Zm8.636,16.56-.565-.565V14.729a.367.367,0,0,0-.037-.164l-1.431-2.858V10.325a.367.367,0,0,0-.163-.305l-1.1-.734a.367.367,0,0,0-.294-.051l-1.348.337L12.447,8.6l-.312-2.183L13,5.555h1.854l.624.938a.367.367,0,0,0,.245.158l2.2.367A.364.364,0,0,0,18.1,7l2.028-.676A10.239,10.239,0,0,1,19.651,16.61ZM18.138,3.666l-.6.4-1.664-.333L14.8,3.372a.36.36,0,0,0-.2-.008L13.229,3.7l-.6-.2.443-.887h1.241a.367.367,0,0,0,.164-.039l1.27-.635A10.313,10.313,0,0,1,18.138,3.666ZM6.993,1.6l.881.587a.366.366,0,0,0,.143.057l1.778.3-.174.519L8.7,3.372a.367.367,0,0,0-.2.159L7.443,5.288,5.75,6.3l-2.5.356a.367.367,0,0,0-.316.363v1.1a.367.367,0,0,0,.108.259l.626.626v.63L2.146,8.622,1.592,6.961A10.335,10.335,0,0,1,6.993,1.6ZM5.948,13.636,4.289,13.3l-.617-1.23v-.862L5.04,9.844l.506,1.012a.367.367,0,0,0,.328.2H8.236l.994,1.657a.367.367,0,0,0,.315.178h1.02l-.257,1.287L8.918,15.571a.367.367,0,0,0-.108.259v.917l-1.321.991a.367.367,0,0,0-.147.294v1.326l-.457-.151-.644-1.612V14A.367.367,0,0,0,5.948,13.636Zm-1.1,5.641A10.273,10.273,0,0,1,1.185,8.059l.3.915a.367.367,0,0,0,.144.189l1.829,1.219-.417.418a.367.367,0,0,0-.108.259v1.1a.367.367,0,0,0,.039.164l.734,1.468a.367.367,0,0,0,.257.2l1.541.308v3.369a.367.367,0,0,0,.026.136l.734,1.835a.367.367,0,0,0,.225.212l1.1.367a.361.361,0,0,0,.114.019.367.367,0,0,0,.367-.367V18.216L9.4,17.225a.367.367,0,0,0,.147-.294v-.949l1.36-1.36a.367.367,0,0,0,.1-.188l.367-1.835a.367.367,0,0,0-.36-.439H9.752L8.758,10.5a.367.367,0,0,0-.315-.178H6.1L5.471,9.06a.367.367,0,0,0-.27-.2.36.36,0,0,0-.318.1l-.476.475V8.858A.367.367,0,0,0,4.3,8.6l-.626-.626V7.341l2.254-.322a.369.369,0,0,0,.137-.049L7.9,5.869a.367.367,0,0,0,.126-.126L9.055,4.025l.972-.324a.363.363,0,0,0,.232-.232l.367-1.1a.367.367,0,0,0-.288-.477L8.215,1.537l-.373-.249A10.247,10.247,0,0,1,14.9,1.55l-.67.335H12.847a.367.367,0,0,0-.33.2l-.734,1.468A.367.367,0,0,0,12,4.068l1.1.367a.36.36,0,0,0,.2.008L14.666,4.1l1,.333a.27.27,0,0,0,.044.012l1.835.367a.364.364,0,0,0,.276-.054l.835-.557a10.353,10.353,0,0,1,1.1,1.475l-1.806.6L16,5.953l-.646-.969a.367.367,0,0,0-.3-.163h-2.2a.367.367,0,0,0-.259.108l-1.1,1.1a.367.367,0,0,0-.1.312L11.75,8.91a.367.367,0,0,0,.22.285l2.569,1.1a.363.363,0,0,0,.233.019l1.31-.328.8.535v1.272a.367.367,0,0,0,.037.164l1.431,2.858V16.2a.367.367,0,0,0,.108.259l.768.768A10.273,10.273,0,0,1,4.845,19.277Z" transform="translate(0 -0.05)" fill="url(#linear-gradient)"/>
    </g>
  </g>
</svg>
